<svg width="32" height="32" viewBox="0 0 32 32" fill="none" xmlns="http://www.w3.org/2000/svg">
<path d="M28.9 12.05C28.1972 10.3866 27.1784 8.87533 25.9 7.6C24.6247 6.32159 23.1134 5.30276 21.45 4.6C19.7219 3.86875 17.8906 3.5 16 3.5C14.1094 3.5 12.2781 3.86875 10.55 4.6C8.88659 5.30276 7.37533 6.32159 6.1 7.6C4.82159 8.87533 3.80276 10.3866 3.1 12.05C2.36875 13.7781 2 15.6094 2 17.5C2 21.6469 3.82187 25.5531 6.99687 28.2219L7.05 28.2656C7.23125 28.4156 7.45937 28.5 7.69375 28.5H24.3094C24.5438 28.5 24.7719 28.4156 24.9531 28.2656L25.0063 28.2219C28.1781 25.5531 30 21.6469 30 17.5C30 15.6094 29.6281 13.7781 28.9 12.05ZM15.0625 7.25C15.0625 7.1125 15.175 7 15.3125 7H16.6875C16.825 7 16.9375 7.1125 16.9375 7.25V9.75C16.9375 9.8875 16.825 10 16.6875 10H15.3125C15.175 10 15.0625 9.8875 15.0625 9.75V7.25ZM8.4375 18.1875C8.4375 18.325 8.325 18.4375 8.1875 18.4375H5.6875C5.55 18.4375 5.4375 18.325 5.4375 18.1875V16.8125C5.4375 16.675 5.55 16.5625 5.6875 16.5625H8.1875C8.325 16.5625 8.4375 16.675 8.4375 16.8125V18.1875ZM11.2719 11.7969L10.3 12.7688C10.253 12.8153 10.1896 12.8414 10.1234 12.8414C10.0573 12.8414 9.99386 12.8153 9.94687 12.7688L8.17813 11C8.1316 10.953 8.1055 10.8896 8.1055 10.8234C8.1055 10.7573 8.1316 10.6939 8.17813 10.6469L9.15 9.675C9.24687 9.57813 9.40625 9.57813 9.50313 9.675L11.2719 11.4438C11.3688 11.5406 11.3688 11.7 11.2719 11.7969V11.7969ZM20.3687 14.4094L17.7281 17.05C17.8844 17.6344 17.7344 18.2813 17.275 18.7406C17.1126 18.9033 16.9197 19.0324 16.7074 19.1205C16.495 19.2086 16.2674 19.2539 16.0375 19.2539C15.8076 19.2539 15.58 19.2086 15.3676 19.1205C15.1553 19.0324 14.9624 18.9033 14.8 18.7406C14.6373 18.5782 14.5082 18.3853 14.4201 18.173C14.3321 17.9606 14.2867 17.733 14.2867 17.5031C14.2867 17.2732 14.3321 17.0456 14.4201 16.8333C14.5082 16.6209 14.6373 16.428 14.8 16.2656C15.017 16.048 15.2876 15.8915 15.5844 15.8119C15.8813 15.7323 16.1939 15.7325 16.4906 15.8125L19.1313 13.1719C19.2281 13.075 19.3875 13.075 19.4844 13.1719L20.3687 14.0562C20.4656 14.1531 20.4656 14.3094 20.3687 14.4094V14.4094ZM21.7125 12.7719L20.7406 11.8C20.6941 11.753 20.668 11.6896 20.668 11.6234C20.668 11.5573 20.6941 11.4939 20.7406 11.4469L22.5094 9.67813C22.6062 9.58125 22.7656 9.58125 22.8625 9.67813L23.8344 10.65C23.9313 10.7469 23.9313 10.9063 23.8344 11.0031L22.0656 12.7719C22.0186 12.8184 21.9552 12.8445 21.8891 12.8445C21.8229 12.8445 21.7595 12.8184 21.7125 12.7719V12.7719ZM26.4375 18.1875C26.4375 18.325 26.325 18.4375 26.1875 18.4375H23.6875C23.55 18.4375 23.4375 18.325 23.4375 18.1875V16.8125C23.4375 16.675 23.55 16.5625 23.6875 16.5625H26.1875C26.325 16.5625 26.4375 16.675 26.4375 16.8125V18.1875Z" fill="#F8F8F8"/>
</svg>
