<svg width="36" height="33" viewBox="0 0 36 33" fill="none" xmlns="http://www.w3.org/2000/svg">
<g filter="url(#filter0_d_205_168)">
<path fill-rule="evenodd" clip-rule="evenodd" d="M12 23C12 22.7348 12.1054 22.4804 12.2929 22.2929C12.4804 22.1054 12.7348 22 13 22H31C31.2652 22 31.5196 22.1054 31.7071 22.2929C31.8946 22.4804 32 22.7348 32 23C32 23.2652 31.8946 23.5196 31.7071 23.7071C31.5196 23.8946 31.2652 24 31 24H13C12.7348 24 12.4804 23.8946 12.2929 23.7071C12.1054 23.5196 12 23.2652 12 23ZM12 15C12 14.7348 12.1054 14.4804 12.2929 14.2929C12.4804 14.1054 12.7348 14 13 14H31C31.2652 14 31.5196 14.1054 31.7071 14.2929C31.8946 14.4804 32 14.7348 32 15C32 15.2652 31.8946 15.5196 31.7071 15.7071C31.5196 15.8946 31.2652 16 31 16H13C12.7348 16 12.4804 15.8946 12.2929 15.7071C12.1054 15.5196 12 15.2652 12 15ZM12 7C12 6.73478 12.1054 6.48043 12.2929 6.29289C12.4804 6.10536 12.7348 6 13 6H31C31.2652 6 31.5196 6.10536 31.7071 6.29289C31.8946 6.48043 32 6.73478 32 7C32 7.26522 31.8946 7.51957 31.7071 7.70711C31.5196 7.89464 31.2652 8 31 8H13C12.7348 8 12.4804 7.89464 12.2929 7.70711C12.1054 7.51957 12 7.26522 12 7ZM6 9C6.53043 9 7.03914 8.78929 7.41421 8.41421C7.78929 8.03914 8 7.53043 8 7C8 6.46957 7.78929 5.96086 7.41421 5.58579C7.03914 5.21071 6.53043 5 6 5C5.46957 5 4.96086 5.21071 4.58579 5.58579C4.21071 5.96086 4 6.46957 4 7C4 7.53043 4.21071 8.03914 4.58579 8.41421C4.96086 8.78929 5.46957 9 6 9ZM6 17C6.53043 17 7.03914 16.7893 7.41421 16.4142C7.78929 16.0391 8 15.5304 8 15C8 14.4696 7.78929 13.9609 7.41421 13.5858C7.03914 13.2107 6.53043 13 6 13C5.46957 13 4.96086 13.2107 4.58579 13.5858C4.21071 13.9609 4 14.4696 4 15C4 15.5304 4.21071 16.0391 4.58579 16.4142C4.96086 16.7893 5.46957 17 6 17ZM6 25C6.53043 25 7.03914 24.7893 7.41421 24.4142C7.78929 24.0391 8 23.5304 8 23C8 22.4696 7.78929 21.9609 7.41421 21.5858C7.03914 21.2107 6.53043 21 6 21C5.46957 21 4.96086 21.2107 4.58579 21.5858C4.21071 21.9609 4 22.4696 4 23C4 23.5304 4.21071 24.0391 4.58579 24.4142C4.96086 24.7893 5.46957 25 6 25Z" fill="#F8F8F8"/>
</g>
<defs>
<filter id="filter0_d_205_168" x="-2" y="0" width="40" height="40" filterUnits="userSpaceOnUse" color-interpolation-filters="sRGB">
<feFlood flood-opacity="0" result="BackgroundImageFix"/>
<feColorMatrix in="SourceAlpha" type="matrix" values="0 0 0 0 0 0 0 0 0 0 0 0 0 0 0 0 0 0 127 0" result="hardAlpha"/>
<feOffset dy="4"/>
<feGaussianBlur stdDeviation="2"/>
<feComposite in2="hardAlpha" operator="out"/>
<feColorMatrix type="matrix" values="0 0 0 0 0 0 0 0 0 0 0 0 0 0 0 0 0 0 0.25 0"/>
<feBlend mode="normal" in2="BackgroundImageFix" result="effect1_dropShadow_205_168"/>
<feBlend mode="normal" in="SourceGraphic" in2="effect1_dropShadow_205_168" result="shape"/>
</filter>
</defs>
</svg>
