<svg width="20" height="20" viewBox="0 0 20 20" fill="none" xmlns="http://www.w3.org/2000/svg">
<path d="M8.33317 15C9.81232 14.9997 11.2488 14.5045 12.414 13.5934L16.0773 17.2567L17.2557 16.0784L13.5923 12.415C14.504 11.2497 14.9995 9.81288 14.9998 8.33335C14.9998 4.65752 12.009 1.66669 8.33317 1.66669C4.65734 1.66669 1.6665 4.65752 1.6665 8.33335C1.6665 12.0092 4.65734 15 8.33317 15ZM8.33317 3.33335C11.0907 3.33335 13.3332 5.57585 13.3332 8.33335C13.3332 11.0909 11.0907 13.3334 8.33317 13.3334C5.57567 13.3334 3.33317 11.0909 3.33317 8.33335C3.33317 5.57585 5.57567 3.33335 8.33317 3.33335Z" fill="black"/>
<path d="M9.51018 7.15501C9.82602 7.47168 10.0002 7.89001 10.0002 8.33334H11.6668C11.6676 7.89537 11.5815 7.46159 11.4136 7.05708C11.2457 6.65257 10.9992 6.28536 10.6885 5.97668C9.42685 4.71668 7.23935 4.71668 5.97852 5.97668L7.15518 7.15668C7.78852 6.52501 8.88018 6.52668 9.51018 7.15501Z" fill="black"/>
</svg>
