<svg width="20" height="20" viewBox="0 0 20 20" fill="none" xmlns="http://www.w3.org/2000/svg">
<path d="M8.33342 15C9.81256 14.9997 11.2491 14.5045 12.4142 13.5934L16.0776 17.2567L17.2559 16.0784L13.5926 12.415C14.5042 11.2497 14.9997 9.81288 15.0001 8.33335C15.0001 4.65752 12.0092 1.66669 8.33342 1.66669C4.65758 1.66669 1.66675 4.65752 1.66675 8.33335C1.66675 12.0092 4.65758 15 8.33342 15ZM8.33342 3.33335C11.0909 3.33335 13.3334 5.57585 13.3334 8.33335C13.3334 11.0909 11.0909 13.3334 8.33342 13.3334C5.57591 13.3334 3.33341 11.0909 3.33341 8.33335C3.33341 5.57585 5.57591 3.33335 8.33342 3.33335Z" fill="black"/>
<path d="M9.50994 7.15501C9.82577 7.47168 9.99994 7.89001 9.99994 8.33334H11.6666C11.6673 7.89537 11.5813 7.46159 11.4133 7.05708C11.2454 6.65257 10.999 6.28536 10.6883 5.97668C9.42661 4.71668 7.2391 4.71668 5.97827 5.97668L7.15494 7.15668C7.78827 6.52501 8.87994 6.52668 9.50994 7.15501Z" fill="black"/>
</svg>
