<svg width="35" height="35" viewBox="0 0 35 35" fill="none" xmlns="http://www.w3.org/2000/svg">
<path d="M6.5625 32.8125H19.6875C20.2675 32.8119 20.8235 32.5813 21.2337 32.1712C21.6438 31.761 21.8744 31.205 21.875 30.625V27.3438H19.6875V30.625H6.5625V4.375H19.6875V7.65625H21.875V4.375C21.8744 3.79502 21.6438 3.23895 21.2337 2.82884C20.8235 2.41873 20.2675 2.18808 19.6875 2.1875H6.5625C5.98252 2.18808 5.42645 2.41873 5.01634 2.82884C4.60623 3.23895 4.37558 3.79502 4.375 4.375V30.625C4.37558 31.205 4.60623 31.761 5.01634 32.1712C5.42645 32.5813 5.98252 32.8119 6.5625 32.8125Z" fill="#F8F8F8" fill-opacity="0.5"/>
<path d="M22.5159 22.5159L26.4381 18.5938H10.9375V16.4062H26.4381L22.5159 12.4841L24.0625 10.9375L30.625 17.5L24.0625 24.0625L22.5159 22.5159Z" fill="#F8F8F8" fill-opacity="0.5"/>
</svg>
