<svg width="24" height="24" viewBox="0 0 24 24" fill="none" xmlns="http://www.w3.org/2000/svg">
<path d="M4 19V5C4 4.46957 4.21071 3.96086 4.58579 3.58579C4.96086 3.21071 5.46957 3 6 3H19.4C19.5591 3 19.7117 3.06321 19.8243 3.17574C19.9368 3.28826 20 3.44087 20 3.6V16.714" stroke="#F8F8F8" stroke-width="1.5" stroke-linecap="round"/>
<path d="M16.0002 8.77999C16.0001 9.3817 15.7621 9.95898 15.3382 10.386C14.3622 11.37 13.4152 12.396 12.4022 13.344C12.2891 13.447 12.1408 13.5027 11.9878 13.4995C11.8348 13.4964 11.6889 13.4346 11.5802 13.327L8.6622 10.387C8.23803 9.95971 8 9.38205 8 8.77999C8 8.17792 8.23803 7.60027 8.6622 7.17299C8.87385 6.95977 9.12561 6.79054 9.40296 6.67506C9.68031 6.55958 9.97777 6.50013 10.2782 6.50013C10.5786 6.50013 10.8761 6.55958 11.1534 6.67506C11.4308 6.79054 11.6825 6.95977 11.8942 7.17299L12.0002 7.27999L12.1062 7.17299C12.4239 6.85185 12.83 6.63252 13.2727 6.54291C13.7155 6.4533 14.1749 6.49747 14.5925 6.6698C15.01 6.84212 15.3669 7.13481 15.6176 7.51059C15.8683 7.88637 16.0015 8.32826 16.0002 8.77999V8.77999Z" stroke="#F8F8F8" stroke-width="1.5" stroke-linejoin="round"/>
<path d="M6 21H20M6 17H20H6Z" stroke="#F8F8F8" stroke-width="1.5" stroke-linecap="round"/>
<path d="M6 21C5.46957 21 4.96086 20.7893 4.58579 20.4142C4.21071 20.0391 4 19.5304 4 19C4 18.4696 4.21071 17.9609 4.58579 17.5858C4.96086 17.2107 5.46957 17 6 17" stroke="#F8F8F8" stroke-width="1.5" stroke-linecap="round" stroke-linejoin="round"/>
</svg>
