<svg width="32" height="32" viewBox="0 0 32 32" fill="none" xmlns="http://www.w3.org/2000/svg">
<path d="M20 12H12.8C12.5878 12 12.3843 12.0843 12.2343 12.2343C12.0843 12.3843 12 12.5878 12 12.8V21.3333M12 28H20H12ZM12 28V21.3333V28ZM12 28H4.8C4.58783 28 4.38434 27.9157 4.23431 27.7657C4.08429 27.6157 4 27.4122 4 27.2V22.1333C4 21.9212 4.08429 21.7177 4.23431 21.5676C4.38434 21.4176 4.58783 21.3333 4.8 21.3333H12V28ZM20 28V12V28ZM20 28H27.2C27.4122 28 27.6157 27.9157 27.7657 27.7657C27.9157 27.6157 28 27.4122 28 27.2V4.8C28 4.58783 27.9157 4.38434 27.7657 4.23431C27.6157 4.08429 27.4122 4 27.2 4H20.8C20.5878 4 20.3843 4.08429 20.2343 4.23431C20.0843 4.38434 20 4.58783 20 4.8V12V28Z" stroke="#F8F8F8" stroke-width="1.5"/>
</svg>
