<svg width="24" height="24" viewBox="0 0 24 24" fill="none" xmlns="http://www.w3.org/2000/svg">
<path d="M4 19V5C4 4.46957 4.21071 3.96086 4.58579 3.58579C4.96086 3.21071 5.46957 3 6 3H19.4C19.5591 3 19.7117 3.06321 19.8243 3.17574C19.9368 3.28826 20 3.44087 20 3.6V16.714" stroke="#F8F8F8" stroke-width="1.5" stroke-linecap="round"/>
<path d="M16 8.77999C15.9999 9.3817 15.7619 9.95898 15.338 10.386C14.362 11.37 13.415 12.396 12.402 13.344C12.2889 13.447 12.1405 13.5027 11.9876 13.4995C11.8346 13.4964 11.6887 13.4346 11.58 13.327L8.66196 10.387C8.23779 9.95971 7.99976 9.38205 7.99976 8.77999C7.99976 8.17792 8.23779 7.60027 8.66196 7.17299C8.87361 6.95977 9.12536 6.79054 9.40271 6.67506C9.68006 6.55958 9.97753 6.50013 10.278 6.50013C10.5784 6.50013 10.8758 6.55958 11.1532 6.67506C11.4305 6.79054 11.6823 6.95977 11.894 7.17299L12 7.27999L12.106 7.17299C12.4237 6.85185 12.8297 6.63252 13.2725 6.54291C13.7152 6.4533 14.1746 6.49747 14.5922 6.6698C15.0098 6.84212 15.3666 7.13481 15.6173 7.51059C15.868 7.88637 16.0012 8.32826 16 8.77999V8.77999Z" stroke="#F8F8F8" stroke-width="1.5" stroke-linejoin="round"/>
<path d="M6 21H20M6 17H20H6Z" stroke="#F8F8F8" stroke-width="1.5" stroke-linecap="round"/>
<path d="M6 21C5.46957 21 4.96086 20.7893 4.58579 20.4142C4.21071 20.0391 4 19.5304 4 19C4 18.4696 4.21071 17.9609 4.58579 17.5858C4.96086 17.2107 5.46957 17 6 17" stroke="#F8F8F8" stroke-width="1.5" stroke-linecap="round" stroke-linejoin="round"/>
</svg>
