<svg width="32" height="32" viewBox="0 0 32 32" fill="none" xmlns="http://www.w3.org/2000/svg">
<path d="M5.3335 12H8.00016V4H10.6668L15.2268 12H21.3335V4H24.0002V12H26.6668V14.6667H24.0002V17.3333H26.6668V20H24.0002V28H21.3335L16.7602 20H10.6668V28H8.00016V20H5.3335V17.3333H8.00016V14.6667H5.3335V12ZM10.6668 12H12.1735L10.6668 9.37333V12ZM10.6668 14.6667V17.3333H15.2268L13.7068 14.6667H10.6668ZM21.3335 22.6667V20H19.8002L21.3335 22.6667ZM16.7468 14.6667L18.2802 17.3333H21.3335V14.6667H16.7468Z" fill="black"/>
</svg>
