<svg width="100" height="100" viewBox="0 0 100 100" fill="none" xmlns="http://www.w3.org/2000/svg">
<path opacity="0.2" d="M50.0002 12.5C42.4123 12.4978 35.0022 14.7975 28.7488 19.0954C22.4954 23.3933 17.693 29.4871 14.9759 36.5719C12.2588 43.6567 11.7549 51.3991 13.5307 58.7763C15.3065 66.1535 19.2786 72.8184 24.9221 77.8906C27.2736 73.2599 30.8615 69.3707 35.2879 66.6542C39.7144 63.9376 44.8066 62.4998 50.0002 62.5C46.9099 62.5 43.889 61.5836 41.3194 59.8667C38.7499 58.1498 36.7472 55.7095 35.5646 52.8544C34.382 49.9993 34.0726 46.8577 34.6755 43.8267C35.2783 40.7958 36.7665 38.0117 38.9517 35.8265C41.1369 33.6413 43.921 32.1531 46.9519 31.5502C49.9829 30.9473 53.1246 31.2568 55.9797 32.4394C58.8347 33.622 61.275 35.6247 62.9919 38.1942C64.7088 40.7637 65.6252 43.7847 65.6252 46.875C65.6252 51.019 63.979 54.9933 61.0488 57.9235C58.1185 60.8538 54.1442 62.5 50.0002 62.5C55.1938 62.4998 60.286 63.9376 64.7125 66.6542C69.139 69.3707 72.7268 73.2599 75.0784 77.8906C80.7219 72.8184 84.6939 66.1535 86.4697 58.7763C88.2456 51.3991 87.7417 43.6567 85.0246 36.5719C82.3075 29.4871 77.505 23.3933 71.2516 19.0954C64.9983 14.7975 57.5882 12.4978 50.0002 12.5Z" fill="black"/>
<path d="M65.6246 21.875C65.6246 21.0462 65.9538 20.2513 66.5399 19.6653C67.1259 19.0792 67.9208 18.75 68.7496 18.75H74.9996V12.5C74.9996 11.6712 75.3288 10.8763 75.9149 10.2903C76.5009 9.70422 77.2958 9.37498 78.1246 9.37498C78.9534 9.37498 79.7482 9.70422 80.3343 10.2903C80.9203 10.8763 81.2496 11.6712 81.2496 12.5V18.75H87.4996C88.3284 18.75 89.1232 19.0792 89.7093 19.6653C90.2953 20.2513 90.6246 21.0462 90.6246 21.875C90.6246 22.7038 90.2953 23.4986 89.7093 24.0847C89.1232 24.6707 88.3284 25 87.4996 25H81.2496V31.25C81.2496 32.0788 80.9203 32.8736 80.3343 33.4597C79.7482 34.0457 78.9534 34.375 78.1246 34.375C77.2958 34.375 76.5009 34.0457 75.9149 33.4597C75.3288 32.8736 74.9996 32.0788 74.9996 31.25V25H68.7496C67.9208 25 67.1259 24.6707 66.5399 24.0847C65.9538 23.4986 65.6246 22.7038 65.6246 21.875ZM90.1168 43.5937C90.4621 45.7115 90.6319 47.8542 90.6246 50C90.63 55.6378 89.4584 61.2147 87.1849 66.3738C84.9114 71.533 81.586 76.1607 77.4215 79.9609L76.9136 80.4297C69.4869 86.9982 59.9144 90.624 49.9996 90.624C40.0848 90.624 30.5123 86.9982 23.0855 80.4297L22.5777 79.9609C16.5407 74.4326 12.3145 67.2095 10.453 59.2382C8.59154 51.2668 9.18161 42.919 12.1459 35.2887C15.1102 27.6585 20.3104 21.1017 27.065 16.4776C33.8197 11.8535 41.8138 9.37782 49.9996 9.37498C52.1453 9.36766 54.288 9.53751 56.4058 9.8828C57.2105 10.0273 57.9266 10.4814 58.4004 11.1477C58.8742 11.814 59.0679 12.6395 58.9402 13.447C58.8124 14.2545 58.3732 14.9798 57.7169 15.4673C57.0605 15.9548 56.2393 16.1657 55.4293 16.0547C53.6329 15.7743 51.8177 15.6307 49.9996 15.625C43.3766 15.6272 36.8952 17.5426 31.3349 21.1408C25.7747 24.7391 21.3723 29.867 18.6571 35.9079C15.942 41.9488 15.0299 48.6455 16.0303 55.1925C17.0307 61.7395 19.9012 67.8581 24.2965 72.8125C27.7808 67.7594 32.6895 63.8569 38.398 61.6015C35.3362 59.19 33.102 55.8843 32.0061 52.1441C30.9102 48.4039 31.007 44.4152 32.2831 40.7326C33.5592 37.05 35.9512 33.8566 39.1264 31.5964C42.3016 29.3363 46.1021 28.1218 49.9996 28.1218C53.897 28.1218 57.6976 29.3363 60.8728 31.5964C64.048 33.8566 66.4399 37.05 67.716 40.7326C68.9921 44.4152 69.089 48.4039 67.993 52.1441C66.8971 55.8843 64.6629 59.19 61.6011 61.6015C67.3097 63.8569 72.2184 67.7594 75.7027 72.8125C81.2989 66.5326 84.3861 58.4115 84.3746 50C84.3689 48.1818 84.2253 46.3667 83.9449 44.5703C83.8339 43.7603 84.0447 42.939 84.5322 42.2827C85.0197 41.6263 85.745 41.1872 86.5526 41.0594C87.3601 40.9316 88.1856 41.1254 88.8519 41.5992C89.5182 42.073 89.9723 42.789 90.1168 43.5937ZM49.9996 59.375C52.4719 59.375 54.8886 58.6419 56.9442 57.2684C58.9998 55.8948 60.602 53.9426 61.5481 51.6585C62.4942 49.3744 62.7417 46.8611 62.2594 44.4364C61.7771 42.0116 60.5866 39.7843 58.8384 38.0361C57.0903 36.288 54.863 35.0975 52.4382 34.6152C50.0135 34.1329 47.5001 34.3804 45.216 35.3265C42.932 36.2726 40.9797 37.8747 39.6062 39.9304C38.2327 41.986 37.4996 44.4027 37.4996 46.875C37.5099 50.187 38.8302 53.3605 41.1721 55.7024C43.5141 58.0444 46.6875 59.3647 49.9996 59.375ZM49.9996 84.375C57.6281 84.386 65.0405 81.8419 71.0543 77.1484C68.7929 73.6162 65.6791 70.7096 61.9998 68.6964C58.3204 66.6832 54.1937 65.628 49.9996 65.628C45.8055 65.628 41.6787 66.6832 37.9994 68.6964C34.32 70.7096 31.2063 73.6162 28.9449 77.1484C34.9587 81.8419 42.3711 84.386 49.9996 84.375Z" fill="black"/>
</svg>
